<?xml version="1.0" encoding="utf-8"?>
<svg version="1.1" xmlns="http://www.w3.org/2000/svg" xmlns:xlink="http://www.w3.org/1999/xlink">
  <!-- Hamburger -->
  <svg id="hamburger" width="18" height="16" viewBox="0 0 18 16" fill="none" xmlns="http://www.w3.org/2000/svg">
    <path d="M1 3.15147C1 2.8837 1.22386 2.66663 1.5 2.66663H16.5C16.7761 2.66663 17 2.8837 17 3.15147C17 3.41925 16.7761 3.63632 16.5 3.63632H1.5C1.22386 3.63632 1 3.41925 1 3.15147Z" fill="#A3A3A3"/>
    <path d="M1 7.99996C1 7.73218 1.22386 7.51511 1.5 7.51511H16.5C16.7761 7.51511 17 7.73218 17 7.99996C17 8.26773 16.7761 8.48481 16.5 8.48481H1.5C1.22386 8.48481 1 8.26773 1 7.99996Z" fill="#A3A3A3"/>
    <path d="M1 12.8484C1 12.5807 1.22386 12.3636 1.5 12.3636H16.5C16.7761 12.3636 17 12.5807 17 12.8484C17 13.1162 16.7761 13.3333 16.5 13.3333H1.5C1.22386 13.3333 1 13.1162 1 12.8484Z" fill="#A3A3A3"/>
    <path d="M1 3.15147C1 2.8837 1.22386 2.66663 1.5 2.66663H16.5C16.7761 2.66663 17 2.8837 17 3.15147C17 3.41925 16.7761 3.63632 16.5 3.63632H1.5C1.22386 3.63632 1 3.41925 1 3.15147Z" stroke="#A3A3A3"/>
    <path d="M1 7.99996C1 7.73218 1.22386 7.51511 1.5 7.51511H16.5C16.7761 7.51511 17 7.73218 17 7.99996C17 8.26773 16.7761 8.48481 16.5 8.48481H1.5C1.22386 8.48481 1 8.26773 1 7.99996Z" stroke="#A3A3A3"/>
    <path d="M1 12.8484C1 12.5807 1.22386 12.3636 1.5 12.3636H16.5C16.7761 12.3636 17 12.5807 17 12.8484C17 13.1162 16.7761 13.3333 16.5 13.3333H1.5C1.22386 13.3333 1 13.1162 1 12.8484Z" stroke="#A3A3A3"/>
  </svg>
</svg>
